<svg version="1.1" xmlns="http://www.w3.org/2000/svg" viewBox="0 0 991.2160842794445 299.745531499387" width="991.2160842794445" height="299.745531499387">
  <!-- svg-source:excalidraw -->
  
  <defs>
    <style class="style-fonts">
      @font-face {
        font-family: "Virgil";
        src: url("https://unpkg.com/@excalidraw/excalidraw@undefined/dist/excalidraw-assets/Virgil.woff2");
      }
      @font-face {
        font-family: "Cascadia";
        src: url("https://unpkg.com/@excalidraw/excalidraw@undefined/dist/excalidraw-assets/Cascadia.woff2");
      }
      @font-face {
        font-family: "Assistant";
        src: url("https://unpkg.com/@excalidraw/excalidraw@undefined/dist/excalidraw-assets/Assistant-Regular.woff2");
      }
    </style>
    
  </defs>
  <g stroke-linecap="round" transform="translate(10 9.999999999999986) rotate(0 112.98246765136719 138.94732666015625)"><path d="M32 0 C76.41 -0.27, 117.44 1.68, 193.96 0 C218.73 -2.17, 228.98 13.23, 225.96 32 C225.37 79.42, 226.04 128.19, 225.96 245.89 C222.71 268.91, 215 277.36, 193.96 277.89 C147.03 274.92, 94.67 278.32, 32 277.89 C9.37 279.64, -2.48 265.18, 0 245.89 C-4.14 161.53, -5.15 78.13, 0 32 C3.12 9.06, 11.43 0.31, 32 0" stroke="none" stroke-width="0" fill="#b2f2bb"></path><path d="M32 0 C85.22 -1.47, 139.61 -2.83, 193.96 0 M32 0 C90.21 0.47, 147.52 -0.37, 193.96 0 M193.96 0 C215.74 1.33, 225.01 11.3, 225.96 32 M193.96 0 C213.85 1.93, 227.24 11.62, 225.96 32 M225.96 32 C227.51 106.8, 225.73 178.23, 225.96 245.89 M225.96 32 C225.44 91.8, 225.35 152.96, 225.96 245.89 M225.96 245.89 C226.08 266.8, 213.47 276.84, 193.96 277.89 M225.96 245.89 C225.27 267.52, 215.85 275.77, 193.96 277.89 M193.96 277.89 C151.79 275.48, 112.45 275.82, 32 277.89 M193.96 277.89 C144.14 277.86, 94.8 277.6, 32 277.89 M32 277.89 C12.02 279.68, -1.59 266.21, 0 245.89 M32 277.89 C10.64 277.32, 0.53 265.73, 0 245.89 M0 245.89 C-0.62 174.74, -0.76 99.15, 0 32 M0 245.89 C0.57 171.74, -0.1 99.08, 0 32 M0 32 C-0.93 8.78, 12.5 -0.13, 32 0 M0 32 C-0.06 11.05, 8.46 -0.03, 32 0" stroke="#1e1e1e" stroke-width="2" fill="none"></path></g><g stroke-linecap="round" transform="translate(375.86854467039575 11.142552648190104) rotate(0 112.98246765136719 138.94732666015625)"><path d="M32 0 C82.6 3.23, 143.07 -1.93, 193.96 0 C217.8 2.68, 223.54 9.54, 225.96 32 C225.21 81.22, 226.48 135.8, 225.96 245.89 C226.91 267.54, 212.05 277.76, 193.96 277.89 C130.32 273.27, 74.55 276.36, 32 277.89 C12.75 276.34, -1.91 265.42, 0 245.89 C-5.89 189.99, -2.3 130.67, 0 32 C3.31 13.52, 12.97 2.09, 32 0" stroke="none" stroke-width="0" fill="#ffec99"></path><path d="M32 0 C74.58 -1.46, 113.02 -0.37, 193.96 0 M32 0 C95.22 -2.23, 159.76 -1.39, 193.96 0 M193.96 0 C213.78 -0.84, 225.53 11.7, 225.96 32 M193.96 0 C213.78 2.14, 228.22 12.07, 225.96 32 M225.96 32 C223 76.41, 223.98 118.49, 225.96 245.89 M225.96 32 C226.04 93.62, 227.39 154.74, 225.96 245.89 M225.96 245.89 C224.19 266.43, 215.15 277.08, 193.96 277.89 M225.96 245.89 C225.49 267.49, 217.43 276.84, 193.96 277.89 M193.96 277.89 C135.18 279.22, 76.71 275.96, 32 277.89 M193.96 277.89 C137.47 279.43, 80.42 277.64, 32 277.89 M32 277.89 C9.26 279, -1.53 267.32, 0 245.89 M32 277.89 C8.62 276.81, -1.06 265.31, 0 245.89 M0 245.89 C0.12 200.79, 0.94 157.5, 0 32 M0 245.89 C-0.66 196.3, -0.24 147.97, 0 32 M0 32 C1.06 11.57, 8.87 0.64, 32 0 M0 32 C0.97 11.69, 10.19 2.29, 32 0" stroke="#1e1e1e" stroke-width="2" fill="none"></path></g><g stroke-linecap="round" transform="translate(755.2511489767102 11.850878179074527) rotate(0 112.98246765136719 138.94732666015625)"><path d="M32 0 C90.4 5.55, 141.37 1.74, 193.96 0 C213.14 -0.42, 226.44 10.25, 225.96 32 C227.76 81.95, 224.08 131.23, 225.96 245.89 C228.53 266.66, 212.43 274.4, 193.96 277.89 C157.79 276.98, 115.55 276.72, 32 277.89 C9.48 281.22, -2.84 264.08, 0 245.89 C2.02 176.15, 1.14 103.24, 0 32 C-2.01 10.73, 11.96 0.62, 32 0" stroke="none" stroke-width="0" fill="#a5d8ff"></path><path d="M32 0 C76.73 -0.82, 119.56 -2.25, 193.96 0 M32 0 C69.35 -0.74, 107.99 0.2, 193.96 0 M193.96 0 C213.97 1.86, 227.92 11.89, 225.96 32 M193.96 0 C213.11 -1.83, 227.53 8.74, 225.96 32 M225.96 32 C225.2 104.21, 225.97 173.51, 225.96 245.89 M225.96 32 C226.54 105.09, 227.26 178.52, 225.96 245.89 M225.96 245.89 C225.55 267.46, 217.15 276.97, 193.96 277.89 M225.96 245.89 C227.42 266.62, 215 277.99, 193.96 277.89 M193.96 277.89 C134.02 276.6, 72.87 277.16, 32 277.89 M193.96 277.89 C130.66 276.95, 67.99 276.45, 32 277.89 M32 277.89 C8.89 276.96, -0.92 265.56, 0 245.89 M32 277.89 C8.58 276.21, -0.42 265.58, 0 245.89 M0 245.89 C-0.8 186.34, 1.33 125.45, 0 32 M0 245.89 C1.11 202.8, -0.14 159.2, 0 32 M0 32 C0.84 11.56, 10.26 1.99, 32 0 M0 32 C0.75 10.56, 9.4 -2.09, 32 0" stroke="#1e1e1e" stroke-width="2" fill="none"></path></g><g stroke-linecap="round"><g transform="translate(237.6751424191259 142.32762988170646) rotate(0 67.39808342640782 7.075584041948204)"><path d="M0.4 0.21 C12.02 2.5, 46.24 14.28, 68.65 14.03 C91.06 13.77, 124.01 1.19, 134.87 -1.32 M-0.85 -0.72 C10.77 1.7, 45.63 15.24, 68.13 15.28 C90.63 15.32, 123.24 2.12, 134.14 -0.48" stroke="#1e1e1e" stroke-width="2" fill="none"></path></g><g transform="translate(237.6751424191259 142.32762988170646) rotate(0 67.39808342640782 7.075584041948204)"><path d="M110.21 17.62 C115.6 15.07, 119.42 9.99, 134.14 -0.48 M110.21 17.62 C115.24 12.99, 121.4 8.83, 134.14 -0.48" stroke="#1e1e1e" stroke-width="2" fill="none"></path></g><g transform="translate(237.6751424191259 142.32762988170646) rotate(0 67.39808342640782 7.075584041948204)"><path d="M104.18 -2 C110.9 -0.41, 116 -1.33, 134.14 -0.48 M104.18 -2 C110.4 -2.18, 117.91 -1.94, 134.14 -0.48" stroke="#1e1e1e" stroke-width="2" fill="none"></path></g></g><mask></mask><g stroke-linecap="round"><g transform="translate(603.4276981407368 139.72254889961323) rotate(0 73.40807863376682 5.151424463450496)"><path d="M0.13 0.32 C11.78 1.97, 46.17 10.43, 70.5 10.1 C94.83 9.77, 133.48 -0.04, 146.13 -1.68 M-1.26 -0.56 C10.73 1.19, 48.44 11.12, 72.81 11.08 C97.19 11.05, 132.74 1.35, 145 -0.79" stroke="#1e1e1e" stroke-width="2" fill="none"></path></g><g transform="translate(603.4276981407368 139.72254889961323) rotate(0 73.40807863376682 5.151424463450496)"><path d="M119.57 15.13 C128.94 8.29, 135.51 2.86, 145 -0.79 M119.57 15.13 C125.56 10.63, 132.33 8.15, 145 -0.79" stroke="#1e1e1e" stroke-width="2" fill="none"></path></g><g transform="translate(603.4276981407368 139.72254889961323) rotate(0 73.40807863376682 5.151424463450496)"><path d="M115.29 -4.94 C126.18 -4.79, 134.24 -3.23, 145 -0.79 M115.29 -4.94 C122.2 -4.83, 129.96 -2.65, 145 -0.79" stroke="#1e1e1e" stroke-width="2" fill="none"></path></g></g><mask></mask><g transform="translate(71.31621653809583 32.40079520098527) rotate(0 44.28997039794922 12.5)"><text x="44.28997039794922" y="0" font-family="Virgil, Segoe UI Emoji" font-size="20px" fill="#1e1e1e" text-anchor="middle" style="white-space: pre;" direction="ltr" dominant-baseline="text-before-edge">STEP - 1</text></g><g transform="translate(28.5583508307011 95.07672086725705) rotate(0 96.17723846435547 59.18894862429477)"><text x="96.17723846435547" y="0" font-family="Virgil, Segoe UI Emoji" font-size="18.940463559774322px" fill="#1e1e1e" text-anchor="middle" style="white-space: pre;" direction="ltr" dominant-baseline="text-before-edge">Complete our online </text><text x="96.17723846435547" y="23.6755794497179" font-family="Virgil, Segoe UI Emoji" font-size="18.940463559774322px" fill="#1e1e1e" text-anchor="middle" style="white-space: pre;" direction="ltr" dominant-baseline="text-before-edge">application </text><text x="96.17723846435547" y="47.3511588994358" font-family="Virgil, Segoe UI Emoji" font-size="18.940463559774322px" fill="#1e1e1e" text-anchor="middle" style="white-space: pre;" direction="ltr" dominant-baseline="text-before-edge">form to showcase </text><text x="96.17723846435547" y="71.0267383491537" font-family="Virgil, Segoe UI Emoji" font-size="18.940463559774322px" fill="#1e1e1e" text-anchor="middle" style="white-space: pre;" direction="ltr" dominant-baseline="text-before-edge">your </text><text x="96.17723846435547" y="94.7023177988716" font-family="Virgil, Segoe UI Emoji" font-size="18.940463559774322px" fill="#1e1e1e" text-anchor="middle" style="white-space: pre;" direction="ltr" dominant-baseline="text-before-edge">skills and experience.</text></g><g transform="translate(441.2457002537823 33.87404805957465) rotate(0 48.69996643066406 12.5)"><text x="48.69996643066406" y="0" font-family="Virgil, Segoe UI Emoji" font-size="20px" fill="#1e1e1e" text-anchor="middle" style="white-space: pre;" direction="ltr" dominant-baseline="text-before-edge">STEP - 2</text></g><g transform="translate(381.85948688092617 96.93232015260912) rotate(0 105.75795240782668 56.18393235197547)"><text x="105.75795240782669" y="0" font-family="Virgil, Segoe UI Emoji" font-size="17.978858352632145px" fill="#1e1e1e" text-anchor="middle" style="white-space: pre;" direction="ltr" dominant-baseline="text-before-edge">Selected candidates </text><text x="105.75795240782669" y="22.47357294079018" font-family="Virgil, Segoe UI Emoji" font-size="17.978858352632145px" fill="#1e1e1e" text-anchor="middle" style="white-space: pre;" direction="ltr" dominant-baseline="text-before-edge">will be invited for</text><text x="105.75795240782669" y="44.94714588158036" font-family="Virgil, Segoe UI Emoji" font-size="17.978858352632145px" fill="#1e1e1e" text-anchor="middle" style="white-space: pre;" direction="ltr" dominant-baseline="text-before-edge"> an interview to assess</text><text x="105.75795240782669" y="67.42071882237055" font-family="Virgil, Segoe UI Emoji" font-size="17.978858352632145px" fill="#1e1e1e" text-anchor="middle" style="white-space: pre;" direction="ltr" dominant-baseline="text-before-edge"> their </text><text x="105.75795240782669" y="89.89429176316072" font-family="Virgil, Segoe UI Emoji" font-size="17.978858352632145px" fill="#1e1e1e" text-anchor="middle" style="white-space: pre;" direction="ltr" dominant-baseline="text-before-edge">suitability for the role.</text></g><g transform="translate(763.4103512409132 96.18113142476864) rotate(0 104.13881946617266 59.49646898372032)"><text x="104.1388194661726" y="0" font-family="Virgil, Segoe UI Emoji" font-size="19.03887007479049px" fill="#1e1e1e" text-anchor="middle" style="white-space: pre;" direction="ltr" dominant-baseline="text-before-edge">Based on your</text><text x="104.1388194661726" y="23.798587593488115" font-family="Virgil, Segoe UI Emoji" font-size="19.03887007479049px" fill="#1e1e1e" text-anchor="middle" style="white-space: pre;" direction="ltr" dominant-baseline="text-before-edge"> performance</text><text x="104.1388194661726" y="47.59717518697623" font-family="Virgil, Segoe UI Emoji" font-size="19.03887007479049px" fill="#1e1e1e" text-anchor="middle" style="white-space: pre;" direction="ltr" dominant-baseline="text-before-edge"> in the interview.</text><text x="104.1388194661726" y="71.39576278046434" font-family="Virgil, Segoe UI Emoji" font-size="19.03887007479049px" fill="#1e1e1e" text-anchor="middle" style="white-space: pre;" direction="ltr" dominant-baseline="text-before-edge">Successful candidates</text><text x="104.1388194661726" y="95.19435037395246" font-family="Virgil, Segoe UI Emoji" font-size="19.03887007479049px" fill="#1e1e1e" text-anchor="middle" style="white-space: pre;" direction="ltr" dominant-baseline="text-before-edge"> will join GTC.</text></g><g transform="translate(826.3041919160402 29.989029444868947) rotate(0 48.38996887207031 12.5)"><text x="48.38996887207031" y="0" font-family="Virgil, Segoe UI Emoji" font-size="20px" fill="#1e1e1e" text-anchor="middle" style="white-space: pre;" direction="ltr" dominant-baseline="text-before-edge">STEP - 3</text></g></svg>